<?xml version="1.0" encoding="UTF-8"?>
<svg version="1.1" xmlns="http://www.w3.org/2000/svg" width="77" height="75">
<path d="M0 0 C0.98871094 0.05285156 1.97742188 0.10570313 2.99609375 0.16015625 C7.09748674 0.39880293 10.89575493 0.71912893 14.875 1.75 C18.14341668 1.97540805 21.41064022 2.12932135 24.68359375 2.2734375 C28.13120944 2.78825894 29.98193379 3.87801598 32.875 5.75 C34.1125 5.976875 35.35 6.20375 36.625 6.4375 C42.21517971 7.68094301 46.10971696 11.60975101 49.875 15.75 C52.95094783 20.75467622 52.28307012 26.30368276 52.3125 32 C52.34537109 33.10730469 52.37824219 34.21460938 52.41210938 35.35546875 C52.45685901 42.19809409 51.84748275 47.66790723 46.875 52.75 C46.215 52.75 45.555 52.75 44.875 52.75 C44.606875 53.554375 44.33875 54.35875 44.0625 55.1875 C43.670625 56.033125 43.27875 56.87875 42.875 57.75 C41.39 58.245 41.39 58.245 39.875 58.75 C39.18062253 60.74054876 38.51889782 62.74255385 37.875 64.75 C35.35703298 69.24636967 32.68238676 72.70977438 27.875 74.75 C24.13542874 75.35585646 20.46944081 75.36657112 16.6875 75.3125 C15.1403833 75.30259033 15.1403833 75.30259033 13.56201172 75.29248047 C6.97666314 75.1265685 1.86219308 74.3367334 -3.91015625 70.96875 C-6.31560494 69.64511686 -8.23550023 69.26543675 -10.9375 68.875 C-15.24150999 68.06031239 -17.1206587 66.22415258 -19.73828125 62.796875 C-20.19589844 62.12140625 -20.65351563 61.4459375 -21.125 60.75 C-21.80264404 59.86787842 -22.48028809 58.98575684 -23.1784668 58.0769043 C-25.44662328 54.2002997 -25.64022374 51.93282281 -25.65625 47.47265625 C-25.6600769 46.78425156 -25.66390381 46.09584686 -25.66784668 45.38658142 C-25.67055736 43.93177831 -25.66325521 42.47692576 -25.64648438 41.0222168 C-25.62535411 38.84892072 -25.64615392 36.67904353 -25.671875 34.50585938 C-25.69141304 24.96627516 -24.81206332 15.65701226 -21.125 6.75 C-20.135 6.42 -19.145 6.09 -18.125 5.75 C-17.795 4.76 -17.465 3.77 -17.125 2.75 C-11.68461538 -1.16420412 -6.35804771 -0.44280753 0 0 Z " fill="#F95650" transform="translate(25.125,0.25)"/>
<path d="M0 0 C0.98871094 0.05285156 1.97742188 0.10570313 2.99609375 0.16015625 C7.09748674 0.39880293 10.89575493 0.71912893 14.875 1.75 C18.14341668 1.97540805 21.41064022 2.12932135 24.68359375 2.2734375 C28.13120944 2.78825894 29.98193379 3.87801598 32.875 5.75 C34.1125 5.976875 35.35 6.20375 36.625 6.4375 C42.21517971 7.68094301 46.10971696 11.60975101 49.875 15.75 C52.95094783 20.75467622 52.28307012 26.30368276 52.3125 32 C52.34537109 33.10730469 52.37824219 34.21460938 52.41210938 35.35546875 C52.45685901 42.19809409 51.84748275 47.66790723 46.875 52.75 C46.215 52.75 45.555 52.75 44.875 52.75 C44.606875 53.554375 44.33875 54.35875 44.0625 55.1875 C43.670625 56.033125 43.27875 56.87875 42.875 57.75 C41.39 58.245 41.39 58.245 39.875 58.75 C39.18062253 60.74054876 38.51889782 62.74255385 37.875 64.75 C35.35703298 69.24636967 32.68238676 72.70977438 27.875 74.75 C24.13542874 75.35585646 20.46944081 75.36657112 16.6875 75.3125 C15.1403833 75.30259033 15.1403833 75.30259033 13.56201172 75.29248047 C6.97666314 75.1265685 1.86219308 74.3367334 -3.91015625 70.96875 C-6.31560494 69.64511686 -8.23550023 69.26543675 -10.9375 68.875 C-15.24150999 68.06031239 -17.1206587 66.22415258 -19.73828125 62.796875 C-20.19589844 62.12140625 -20.65351563 61.4459375 -21.125 60.75 C-21.80264404 59.86787842 -22.48028809 58.98575684 -23.1784668 58.0769043 C-25.44662328 54.2002997 -25.64022374 51.93282281 -25.65625 47.47265625 C-25.6600769 46.78425156 -25.66390381 46.09584686 -25.66784668 45.38658142 C-25.67055736 43.93177831 -25.66325521 42.47692576 -25.64648438 41.0222168 C-25.62535411 38.84892072 -25.64615392 36.67904353 -25.671875 34.50585938 C-25.69141304 24.96627516 -24.81206332 15.65701226 -21.125 6.75 C-20.135 6.42 -19.145 6.09 -18.125 5.75 C-17.795 4.76 -17.465 3.77 -17.125 2.75 C-11.68461538 -1.16420412 -6.35804771 -0.44280753 0 0 Z M-16.69140625 18.41015625 C-21.81884637 24.88450602 -23.76676839 33.08377238 -23.47265625 41.2421875 C-22.2036711 50.39599047 -17.09943702 58.85094509 -9.875 64.5625 C-3.27405104 68.86620241 5.06105754 71.05027928 12.875 69.75 C23.62254852 66.68675231 30.6890155 62.93557871 36.25 53.1875 C40.42564535 45.31629686 40.99331238 37.35283655 38.8125 28.75 C36.18688925 20.86089854 31.16648191 14.77552931 23.90234375 10.74609375 C23.23332031 10.41738281 22.56429687 10.08867187 21.875 9.75 C21.23691406 9.43160156 20.59882812 9.11320313 19.94140625 8.78515625 C6.53744966 2.9327245 -7.14350505 8.29080959 -16.69140625 18.41015625 Z " fill="#F6F4F4" transform="translate(25.125,0.25)"/>
<path d="M0 0 C-0.37898438 0.93972656 -0.37898438 0.93972656 -0.765625 1.8984375 C-1.45294054 3.62542656 -2.12704848 5.35842267 -2.74804688 7.11035156 C-7.09470469 19.0513401 -11.67694483 26.20317507 -23.4375 31.6875 C-27.89421927 33.67353556 -32.37160219 35.45720073 -37 37 C-35.09043156 32.03716437 -32.90221171 27.20709828 -30.6875 22.375 C-30.30916016 21.51648438 -29.93082031 20.65796875 -29.54101562 19.7734375 C-27.3489117 15.02573357 -25.95122716 12.17991529 -21 10 C-19.47114882 9.18080466 -17.94688272 8.35302825 -16.42578125 7.51953125 C-14.72218945 6.61561151 -13.01773909 5.71330829 -11.3125 4.8125 C-10.0121582 4.11737305 -10.0121582 4.11737305 -8.68554688 3.40820312 C-7.85732422 2.97056641 -7.02910156 2.53292969 -6.17578125 2.08203125 C-5.42208252 1.68218018 -4.66838379 1.2823291 -3.8918457 0.87036133 C-2 0 -2 0 0 0 Z " fill="#F7EDEC" transform="translate(52,20)"/>
<path d="M0 0 C2.5 0.125 2.5 0.125 3.5 1.125 C3.625 3.625 3.625 3.625 3.5 6.125 C2.5 7.125 2.5 7.125 0 7.25 C-2.5 7.125 -2.5 7.125 -3.5 6.125 C-3.625 3.625 -3.625 3.625 -3.5 1.125 C-2.5 0.125 -2.5 0.125 0 0 Z " fill="#F95C57" transform="translate(33.5,34.875)"/>
</svg>
